<?xml version="1.0" standalone="no"?><!DOCTYPE svg PUBLIC "-//W3C//DTD SVG 1.1//EN" "http://www.w3.org/Graphics/SVG/1.1/DTD/svg11.dtd"><svg t="1619532060364" class="icon" viewBox="0 0 1024 1024" version="1.1" xmlns="http://www.w3.org/2000/svg" p-id="1541" xmlns:xlink="http://www.w3.org/1999/xlink" width="200" height="200"><defs><style type="text/css"></style></defs><path d="M794.944 1008a53.376 53.376 0 0 1-25.344-6.4L512 864.256 254.464 1001.6a54.912 54.912 0 0 1-66.752-12.928 54.4 54.4 0 0 1-12.032-44.352l49.344-291.392L16.192 446.592a54.272 54.272 0 0 1-13.44-55.872 54.016 54.016 0 0 1 43.584-36.864l288.128-42.432L463.36 46.528c18.304-37.696 78.976-37.696 97.344 0l128.96 264.896 288.064 42.432c20.416 3.008 37.12 17.152 43.584 36.864a54.4 54.4 0 0 1-13.44 55.936l-208.768 206.336 49.344 291.456a54.4 54.4 0 0 1-53.504 63.552zM74.688 414.4l198.784 196.48a54.592 54.592 0 0 1 15.424 47.872l-47.104 278.4 244.864-131.904a54.976 54.976 0 0 1 50.688 0l244.672 130.432-46.848-276.864a54.4 54.4 0 0 1 15.552-48.064l198.656-196.352-274.304-40.384a54.016 54.016 0 0 1-40.832-30.08L512 92.8 389.76 344a54.144 54.144 0 0 1-40.832 29.952l-274.24 40.448z" p-id="1542"></path></svg>